# Blender 3.6.2
# www.blender.org
mtllib low-poly-torus.mtl
o Torus
v 1.261613 0.000000 0.059099
v 1.202340 0.180704 -0.126881
v 0.768016 -0.000000 -0.205789
v 1.202340 -0.180704 -0.126881
v 1.087899 -0.000000 -0.657100
v 0.700596 -0.180342 -0.450342
v 0.897243 -0.238970 -0.717099
v 0.700596 0.180342 -0.450342
v 0.897243 0.238969 -0.717099
v 0.386823 -0.000000 -1.220823
v 0.192035 -0.000000 -0.749884
v 0.293100 -0.180488 -0.778202
v 0.269160 -0.241747 -1.117256
v 0.269160 0.241746 -1.117256
v 0.293100 0.180488 -0.778202
v -0.347340 0.177040 -0.766612
v -0.669164 -0.000000 -1.105273
v -0.347340 -0.177040 -0.766612
v -0.406856 -0.185839 -1.123045
v -0.406856 0.185839 -1.123045
v -0.508872 -0.000000 -0.593474
v -0.800306 0.242669 -0.802558
v -0.800306 -0.242669 -0.802558
v -0.828980 -0.183826 -0.211571
v -1.303874 -0.000000 -0.057908
v -0.828980 0.183826 -0.211571
v -1.145116 -0.182946 -0.356675
v -1.145116 0.182946 -0.356675
v -0.767605 0.000000 0.034602
v -1.120149 -0.232729 0.258977
v -1.120149 0.232729 0.258977
v -0.794027 -0.244922 0.809049
v -0.580127 0.187234 0.629741
v -0.824566 0.000000 0.979862
v -0.794027 0.244922 0.809049
v -0.549765 0.000000 0.528457
v -0.580127 -0.187234 0.629741
v -0.266972 0.119465 0.754695
v -0.266972 -0.119465 0.754695
v -0.382765 0.234841 1.082411
v 0.034745 0.000000 0.782325
v -0.382765 -0.234841 1.082411
v 0.025110 0.000000 1.270698
v 0.345942 0.248985 1.033410
v 0.177908 0.182037 0.814861
v 0.392277 0.129064 1.180940
v 0.345942 -0.248985 1.033410
v 0.392277 -0.129064 1.180940
v 0.177908 -0.182037 0.814861
v 0.932427 0.000000 0.894421
v 0.598374 0.183711 0.577483
v 0.595695 0.000000 0.476085
v 0.598374 -0.183710 0.577483
v 0.982039 0.235635 0.602452
v 0.982039 -0.235635 0.602452
v 0.830808 0.180960 0.074633
v 0.830808 -0.180960 0.074633
vn -0.9699 -0.0363 0.2406
vn -0.9699 0.0363 0.2406
vn -0.4840 0.6352 0.6019
vn -0.4840 -0.6352 0.6019
vn 0.4577 -0.5289 -0.7147
vn -0.0238 0.3839 -0.9231
vn -0.0238 -0.3839 -0.9231
vn 0.1738 -0.6029 0.7786
vn 0.1060 0.9278 0.3577
vn 0.1060 -0.9278 0.3577
vn -0.4597 -0.5850 -0.6681
vn -0.7768 0.2824 -0.5629
vn 0.1345 0.9854 0.1046
vn 0.1345 -0.9854 0.1046
vn -0.7768 -0.2824 -0.5629
vn 0.7154 0.6335 0.2947
vn 0.7154 -0.6335 0.2947
vn 0.2082 0.9759 -0.0655
vn 0.2082 -0.9759 -0.0655
vn -0.8599 -0.0158 0.5102
vn 0.8590 0.3443 -0.3789
vn 0.8590 -0.3443 -0.3789
vn -0.8599 0.0158 0.5102
vn 0.4126 0.4843 -0.7715
vn 0.4126 -0.4843 -0.7715
vn -0.4540 0.5471 0.7033
vn -0.4540 -0.5471 0.7033
vn 0.3120 0.6218 -0.7183
vn 0.3120 -0.6218 -0.7183
vn 0.0361 0.9921 -0.1201
vn 0.1889 -0.5835 -0.7898
vn 0.1889 0.5835 -0.7898
vn 0.0361 -0.9921 -0.1201
vn -0.0185 0.6057 0.7955
vn -0.0185 -0.6057 0.7955
vn 0.1225 0.0805 -0.9892
vn 0.1225 -0.0805 -0.9892
vn -0.1198 0.9713 -0.2054
vn -0.1198 -0.9713 -0.2054
vn -0.4227 0.4709 -0.7743
vn -0.4227 -0.4709 -0.7743
vn 0.4727 0.6448 0.6007
vn 0.3654 0.7752 0.5153
vn 0.3654 -0.7752 0.5153
vn 0.4727 -0.6448 0.6007
vn -0.7883 0.5822 -0.1992
vn -0.7883 -0.5822 -0.1992
vn 0.8398 0.4980 0.2162
vn 0.8398 -0.4980 0.2162
vn -0.4307 0.9020 0.0300
vn 0.9690 0.0760 -0.2350
vn 0.9690 -0.0760 -0.2350
vn -0.2185 0.9744 0.0531
vn -0.2185 -0.9744 0.0531
vn 0.7736 0.5299 -0.3476
vn 0.7736 -0.5299 -0.3476
vn -0.0908 0.9846 0.1494
vn -0.0908 -0.9846 0.1494
vn 0.5995 0.2911 -0.7456
vn -0.6146 0.4462 0.6506
vn -0.6146 -0.4462 0.6506
vn 0.5995 -0.2911 -0.7456
vn 0.4577 0.5289 -0.7147
vn -0.1493 0.9711 0.1860
vn -0.1493 -0.9711 0.1860
vn 0.0171 0.1456 0.9892
vn 0.0171 -0.1456 0.9892
vn -0.1086 0.0584 -0.9924
vn -0.0021 0.9840 0.1779
vn -0.0021 -0.9840 0.1779
vn -0.1086 -0.0584 -0.9924
vn 0.1738 0.6029 0.7786
vn -0.4597 0.5850 -0.6681
vn -0.0772 0.9611 -0.2652
vn -0.0772 -0.9611 -0.2652
vn 0.7541 -0.0475 0.6550
vn 0.7541 0.0475 0.6550
vn -0.8506 -0.1037 -0.5155
vn -0.8506 0.1037 -0.5155
vn -0.2546 0.9647 -0.0677
vn 0.3341 0.9362 0.1094
vn 0.3341 -0.9362 0.1094
vn -0.2546 -0.9647 -0.0677
vn -0.7712 0.6363 -0.0202
vn -0.7712 -0.6363 -0.0202
vn 0.0672 0.9958 -0.0619
vn 0.0672 -0.9958 -0.0619
vn 0.9573 -0.0593 -0.2829
vn 0.9573 0.0593 -0.2829
vn -0.8413 0.3759 0.3886
vn -0.8413 -0.3759 0.3886
vn 0.1301 0.9786 -0.1596
vn 0.1301 -0.9786 -0.1596
vn -0.3178 0.1924 0.9284
vn -0.3178 -0.1924 0.9284
vn -0.0366 0.9630 -0.2668
vn -0.0366 -0.9630 -0.2668
vn 0.0269 0.7798 0.6254
vn 0.0269 -0.7798 0.6254
vn 0.3497 -0.4084 0.8432
vn 0.3497 0.4084 0.8432
vn -0.4433 0.4381 -0.7820
vn -0.4433 -0.4381 -0.7820
vn -0.1182 0.9717 -0.2046
vn -0.1182 -0.9717 -0.2046
vn -0.1297 0.9894 -0.0653
vn -0.8811 0.2384 -0.4086
vn -0.8811 -0.2384 -0.4086
vn -0.1297 -0.9894 -0.0653
vn 0.9008 0.2502 0.3550
vn 0.9008 -0.2502 0.3550
vn 0.2078 0.9781 -0.0109
vn -0.4307 -0.9020 0.0300
vn 0.2078 -0.9781 -0.0109
vt 0.592062 0.880200
vt 0.541941 1.000000
vt 0.485453 0.874388
vt 0.541941 0.000000
vt 0.592062 0.119800
vt 0.485453 0.125612
vt 0.695154 0.884495
vt 0.695154 0.115505
vt 0.712166 0.325139
vt 0.701215 0.500000
vt 0.599311 0.376468
vt 0.807610 0.612771
vt 0.712166 0.674861
vt 0.807610 0.387229
vt 0.862806 0.000000
vt 0.817824 0.122012
vt 0.710326 0.000000
vt 0.883580 0.621163
vt 0.817824 0.877988
vt 0.883580 0.378837
vt 0.836840 0.500000
vt 0.955210 0.600922
vt 0.951620 0.887151
vt 0.951620 0.112849
vt 0.955210 0.399078
vt 0.988046 1.000000
vt 0.862806 1.000000
vt 0.988046 0.000000
vt 0.117220 0.625527
vt 0.129039 0.855996
vt 0.004498 0.862073
vt 0.129039 0.144004
vt 0.117220 0.374473
vt 0.004498 0.137927
vt 0.016617 0.500000
vt 0.037679 0.643416
vt 0.121904 1.000000
vt 0.031250 1.000000
vt 0.121904 0.000000
vt 0.031250 0.000000
vt 0.037679 0.356584
vt 0.195810 0.916667
vt 0.195810 0.083333
vt 0.138471 0.500000
vt 0.201254 0.623893
vt 0.201254 0.376107
vt 0.256918 1.000000
vt 0.256918 0.000000
vt 0.284676 0.873560
vt 0.284676 0.126440
vt 0.253098 0.500000
vt 0.301083 0.583333
vt 0.301083 0.416667
vt 0.298062 0.703557
vt 0.380485 0.870267
vt 0.380485 0.129733
vt 0.298062 0.296443
vt 0.392712 1.000000
vt 0.392712 0.000000
vt 0.378156 0.500000
vt 0.411418 0.647798
vt 0.411418 0.352202
vt 0.492583 0.500000
vt 0.514114 0.599670
vt 0.514114 0.400330
vt 0.599311 0.623532
vt 0.586587 0.500000
vt 0.710326 1.000000
vt 0.961455 0.500000
vt 0.984613 0.750000
vt 0.984613 0.250000
vt 1.000000 0.583333
vt 1.000000 0.416667
s 0
f 8/1/1 3/2/1 56/3/1
f 3/4/2 6/5/2 57/6/2
f 15/7/3 3/2/3 8/1/3
f 3/4/4 12/8/4 6/5/4
f 13/9/5 10/10/5 7/11/5
f 10/10/6 20/12/6 14/13/6
f 19/14/7 10/10/7 13/9/7
f 21/15/8 18/16/8 11/17/8
f 22/18/9 16/19/9 14/13/9
f 18/16/10 23/20/10 13/9/10
f 23/20/11 17/21/11 19/14/11
f 17/21/12 28/22/12 22/18/12
f 22/18/13 26/23/13 16/19/13
f 24/24/14 23/20/14 18/16/14
f 27/25/15 17/21/15 23/20/15
f 26/23/16 29/26/16 21/27/16
f 29/28/17 24/24/17 21/15/17
f 35/29/18 33/30/18 26/31/18
f 37/32/19 32/33/19 24/34/19
f 25/35/20 35/29/20 31/36/20
f 33/30/21 36/37/21 29/38/21
f 36/39/22 37/32/22 29/40/22
f 32/33/23 25/35/23 30/41/23
f 38/42/24 36/37/24 33/30/24
f 36/39/25 39/43/25 37/32/25
f 34/44/26 40/45/26 35/29/26
f 42/46/27 34/44/27 32/33/27
f 38/42/28 41/47/28 36/37/28
f 41/48/29 39/43/29 36/39/29
f 40/45/30 45/49/30 33/30/30
f 45/49/31 38/42/31 33/30/31
f 39/43/32 49/50/32 37/32/32
f 49/50/33 42/46/33 37/32/33
f 43/51/34 46/52/34 40/45/34
f 48/53/35 43/51/35 42/46/35
f 45/49/36 41/47/36 38/42/36
f 41/48/37 49/50/37 39/43/37
f 44/54/38 51/55/38 45/49/38
f 53/56/39 47/57/39 49/50/39
f 45/49/40 52/58/40 41/47/40
f 52/59/41 49/50/41 41/48/41
f 50/60/42 54/61/42 46/52/42
f 46/52/43 54/61/43 44/54/43
f 55/62/44 48/53/44 47/57/44
f 55/62/45 50/60/45 48/53/45
f 56/3/46 3/2/46 52/58/46
f 3/4/47 57/6/47 52/59/47
f 1/63/48 2/64/48 54/61/48
f 4/65/49 1/63/49 55/62/49
f 9/66/50 56/3/50 54/61/50
f 1/63/51 5/67/51 2/64/51
f 4/65/52 5/67/52 1/63/52
f 9/66/53 8/1/53 56/3/53
f 57/6/54 6/5/54 7/11/54
f 5/67/55 9/66/55 2/64/55
f 4/65/56 7/11/56 5/67/56
f 9/66/57 14/13/57 8/1/57
f 6/5/58 13/9/58 7/11/58
f 5/67/59 10/10/59 9/66/59
f 15/7/60 11/68/60 3/2/60
f 3/4/61 11/17/61 12/8/61
f 7/11/62 10/10/62 5/67/62
f 10/10/63 14/13/63 9/66/63
f 14/13/64 15/7/64 8/1/64
f 6/5/65 12/8/65 13/9/65
f 15/7/66 16/19/66 11/68/66
f 11/17/67 18/16/67 12/8/67
f 10/10/68 17/21/68 20/12/68
f 14/13/69 16/19/69 15/7/69
f 12/8/70 18/16/70 13/9/70
f 19/14/71 17/21/71 10/10/71
f 16/19/72 21/27/72 11/68/72
f 17/21/73 22/18/73 20/12/73
f 20/12/74 22/18/74 14/13/74
f 13/9/75 23/20/75 19/14/75
f 16/19/76 26/23/76 21/27/76
f 21/15/77 24/24/77 18/16/77
f 17/21/78 25/69/78 28/22/78
f 27/25/79 25/69/79 17/21/79
f 28/22/80 31/70/80 22/18/80
f 22/18/81 31/70/81 26/23/81
f 24/24/82 30/71/82 23/20/82
f 23/20/83 30/71/83 27/25/83
f 25/69/84 31/72/84 28/22/84
f 27/25/85 30/73/85 25/69/85
f 31/36/86 35/29/86 26/31/86
f 24/34/87 32/33/87 30/41/87
f 26/31/88 33/30/88 29/38/88
f 29/40/89 37/32/89 24/34/89
f 25/35/90 34/44/90 35/29/90
f 32/33/91 34/44/91 25/35/91
f 35/29/92 40/45/92 33/30/92
f 37/32/93 42/46/93 32/33/93
f 34/44/94 43/51/94 40/45/94
f 42/46/95 43/51/95 34/44/95
f 40/45/96 44/54/96 45/49/96
f 49/50/97 47/57/97 42/46/97
f 46/52/98 44/54/98 40/45/98
f 47/57/99 48/53/99 42/46/99
f 43/51/100 50/60/100 46/52/100
f 48/53/101 50/60/101 43/51/101
f 45/49/102 51/55/102 52/58/102
f 52/59/103 53/56/103 49/50/103
f 44/54/104 54/61/104 51/55/104
f 53/56/105 55/62/105 47/57/105
f 54/61/106 56/3/106 51/55/106
f 51/55/107 56/3/107 52/58/107
f 52/59/108 57/6/108 53/56/108
f 53/56/109 57/6/109 55/62/109
f 50/60/110 1/63/110 54/61/110
f 55/62/111 1/63/111 50/60/111
f 2/64/112 9/66/112 54/61/112
f 57/6/113 7/11/113 55/62/113
f 55/62/114 7/11/114 4/65/114
